P1
100 100
0011100101010101011100011011110111101111000110010110111101010010100110
0101011111001011110110000101011101010101101001110111011001110001100010
1001110000010001011001000000010101010010110110001101101101001001100111
0010100100101011110101000100110111101100110111001001001011101110001101
1100011010111110110011111110111011010000011001010001110110101100010110
1110111001001001111011111001111010001000110010001100000000110111111110
1111100101100100100110001101011100100110000001011101101101001101111101
1011110110011000100101000110011100010101110010000011111001000110111100
0111101000011000001000110000010001101101100000000000011001000001101011
1011001001011000100100011110001101101001010111001000001010010010100000
1010011010010011011101111011000101100000101111110000010111111110000111
1010101001100100011111001101010110110110001011000011101010111001010001
1100111011011110100010011001110000010111010101011000001110001101100110
1111101110111000110011110011001110000110011111100001110001101011011111
1100010110100110110011000000111001100111111101010010110010011111001011
1101000010000011001011110110111001101110010011111111000011000110001100
1011010000101101100001111000100100001101111000100100010010010100100011
1001011111111101101011111010011111000111000001111110001000001101001100
0011010001101100110110011100000001110111001111110000011101101100101110
0001111101111101000100000101101101110001110100000010000011101001110011
1001111111011011100011110001010110011101000111101100111101000000101001
1001010110010110111110010101100100001110100111100101101111001011100011
1011110110011110001010000100011111010001001110011110010011010100001001
0011101110100111100110010111110111011000010100010000011101010110011011
0011111111111101000100010001001100011100010000111101100000110000001011
0100111000101101101010110110101000011101111001111101110100100100100000
1110001110011100110010111011011110110000111000011000111000100001010100
1110100011011110111011010110010100110011101110111010100111110000011011
1110000111010110101011011000001010011100001000010111000101011110011101
1101101010101000111100110101010100010011010110101001010001100010001101
0000111110110000001001001001100000011100000000001001101111001001011101
1011010101100010101101110101001010110100010101111010101001101000100110
1001101010000011010110000100011111001100011010011000000110110001110000
1010100111101000100010100010110000010000110010000110100101110010011011
0010101111001001100101111111100011000111101001011001111100000001001001
1110111100010101011011111110111000001110111111010101110000011010010001
0111100111110001001010000110110111001010100000101010011100110101001110
0010010101110001111001010011000011010010001000111001000000000001101110
0101111000000000110111100001111100111011100100111001111111111001011100
1101011101110001000111111010110001100110011010110101100001010000110100
0011001101100001000001001010100101111001010010111011101000010011100100
0000111010001100000001110010110000010111101010010100011010010010111110
0001101110010000000010100011100110000010001000010111101000111100010011
0110100010101010010011111101011000000001010111100001111111011111001001
0100001001001110001110010011111101111011111001011001000011000111000001
1101000011010100111110001101100010110100101111010101111001111111110000
0111101111001010010001110101111100011100110011010010010000111100101000
1111101111010000000010110011111000110010011011011010001010000100010001
0001010001001100111111111111110010111010110100100011101110011110101100
1011101001111000110001111000100001111101011111110111000100101101101011
0101110000011010000101101000011011100101000110110000110011000101001110
0100110000010001000100000101001010001110111011101111110100100000010001
0111100000111111010100000011010011100010000111100110111000100111101100
1011000101001110111001010111000101101110010011001111010001001010100000
0010000111000110111111101011111111001010110101100011110011000101001000
0101000101100110101111111110111001101110000111111100011110001101011110
1111000010100110100110011011101110001100110100110001001100000011011101
0100110001010011001001011100010000111100001110010010101010111101111101
1110000011011011001110011000111001001001110111011110110010101001101110
0010101110000100011100100111001000000110100110010100100111111010110101
1110010000110111000110000110011001000010101110000111111100111011110111
0011010010100001100011101011010011110101010000110100110010111110010100
0010010011111001011110001111001000110111000110111010111000100011000011
1011101001111000011111100100001101111001110111110001010000100000110110
0111000110011001000110011101011100000001000100100101100010100010011011
1111011110011010010010001110101110011010010111100001001110110001001100
0010011110111011111100101000110110111110101000101111101000101110110001
0111100101011110100001010100001010010000101011101111110101101011010110
1001110011100010101001010100010100011010101110000111010001000000001110
0011001000111011010101101001111100000001010111001111001101001011001101
0000100101010011000001010111010011001001100111011111001110010111010100
0100111101000101010000111101001000011000110100101101100010001101110110
1011111010101001111110001011100001111000010100010101001100110110000100
0010111101100110010111001111011001110011101110110011111000010110001100
0101110010001110001011101010111111001000010101001100001100111000000111
1101100110010011111001101110001111001010010111001011100011011100001000
0100010001010110001010011010010100100110011110110111110001000111111100
1100010100011011010111010101100010111111010111100110011001011001010101
0010000100010101110100101111001000100111100011100000011110010101111001
1111100100101100010001000111110011001010100010011000100110111110111000
0111101101101101011101101010011100010100000110110010100100101010011110
1100110000011011111001111110000010001000111011100100010111111010011001
0101110011101111000001010011010001010010110101010110011010101001100110
1011111001111100001100100010000101101001111001001101010001001111001101
1100111011110110111010100111111011000100001110111110101110101000101001
0011110101010111101010011100101101100110011000110011111011001101011000
0011101010111000011000100011010111001011000100000100010011100111110011
1111110110010000001001110000101010001010001000010110001011101001101001
1010010000110101011110111001100011010101110010111000110000110111011101
0000011100001101101111001110001001001111010100000111011100100000010100
0010100100011100011011000010110000010110111101110010010001010110100111
1000111100110100101001110010101011000110111100100000010011000101001111
1101001001000010001001100000101011111010000000010111111110100001100100
1001001010011100010010011010100000110110111001010111110110100100101111
1000011001110101001101011111000000001001100011111001100011111111001100
1101110001001101011100100101001111110110100010111010100110010011100010
0001011011001101011101110011011111000101001101000111000110011100000000
0011011011010011101100000011111110011101100101000110100001110000111001
1111101101111011001111001111110110000110001111111010110101011000010001
0100011100110101000001001111101011010110100110011111001011101000101110
0010000001110010001110010101110101101101101100101010011011001011101011
0011011110010000111110101000000001101100101000011101011110000000101011
1010010010011010100100111110101000111110110011111100001110100010001111
0100101010010011101011000001110101101000101101111010010010110000100001
0111100010010001001011010110101111001100111110000001100110000111010100
0111111111110111001001010000011000111110001110000100001010111011001010
0000100101001011001110101000000001011101001100000101111110110000101011
1110111111111010100100100001000111100000011110111001011111011101011101
1000101010011100011001100011111011001110111001000010100100011111101010
1100100010001101011001000101110000100101101010011111011001001001011001
0011001010010001111110111111110110100000101111000111101110001001011111
1000111010101100010010011100001101100001011001000100111000000110100100
1100100110010100100100110011101011100111100011011000011011111110000011
1110111100100100111100000000101011000110000010000110110101111110000011
0110001001001110111000100100111110010110010110101000000010011100101111
0100110010100100010001010111110101110000010000001010111100111100001101
1001011010000111100011101001100001100001000111001001001101011111001001
1011101010011010011000111110111100011110001101000111000100011101011100
1000011010101111111101010001100010111011001100111000101011101110001100
0110010100000101110101010011010001010100100100010000111110111100001011
0000100110100111001101001000001001001111111000100100000111111001001111
0101101000100111000111010000111001111101110111011010110010001100001111
0010101010001011001010110110001000100000100000100001011100101011101101
1100100010010111011100110011011111101110010001100010111110010111001000
0000001110100010110000111001001001100011001111100100000100000000110101
0010101011011011111011001111110100110001101100010011111111000110110110
1100000010010001110111011101111001001011110110000101000100110010011110
0010111011110101001111000011101010001101010100010101101100001100100101
0000111101101010111110010100001000101011101000110001001001001011001101
0111000110101100101110100101000010010001011100010111001001101011010011
1101011001011000000101110101110100011110011111011010101000111100101110
1000110111101101101000100011100000101110010001111011000101001000010001
0101100011001001110011011111111101010011010100011010100111000111100100
0010111110101101010010011110010001111010000111010000101010011011001100
1101000111111010100111011010100010110000101001011011110011001000110110
1001010001010000010111110010000111010000000000110101011000000111001001
0010101011110101001000101100101011001100011101000010000100011110000110
1010110100110111111110000100000001011001000111001110000011111111100000
1101000001101100011100001101101010110010110100101010000110010110111111
0000101010000000100111101010001011000111011000110111001101001100111100
0011111011100000101110111000110111001000100000010111101001010000000101
1011011001111010111100000010111010111010101011000011011010000001011010
011110000101001100001001111010111001011001101011111010111010