P1
200 200
0001101001100000101100011100100000101101011110100101100000010010110001
1001101101000110110100101011010011111001100011000110100011010010101001
0010001001111110101100010101000001001111000111110100101101000000101010
1101000010110000101101100001011101001000110110100110000000101011011100
0110010010110110000101000011111101110111100110110110010010001100011010
0000010110101111001001101000010010111110000111011010110010011001010101
0010110001001110100110111101011010111110010001011000010100101011000011
0100101110010000001100111111100100110011010110110001110010000000110101
1001110110111010100100101001000100001010100011001011100010110100100011
1001010111100000010100001111001101000011111111001011100011111001101101
0101111110111011000001000010111011100010001010110010101000011110010011
0001011100100101101111011000011111010011001011001110011011001110110111
0111010011110001001000110000001011010011010011111011000110110110011001
1000011100011011101110010001000100101001000100000010011011110000001001
1110010110100111101011001100101010000011100111100001111001110011101100
0100110010001111110000110011100110000001001110011111101100110110110111
1110011100010101101000110000011101100010111111000100111111010100000000
0110001001001110111101011110110011010100101010101010001110101100100100
1100111000110111001011111001101111101011100110110011111111011000110001
1110000100010101000111111001101010001011110111011000111001110011101001
1101010011011110110100111011000110100101110001100110100011111111001011
1001111011100000011011100101110001010111001001001000100110011011110101
0111111000000100000011001001101010110010010001001000000100001100011000
0010111110010001101100101100101100110111111011101010100010000111010001
1100111011111011010010011000001110011111000101100110111111111000001001
1011000101011100011100010010011100000111010101110001000011011111011000
1010111001010010100101110101111110111010101000011011100110001111100101
1010000011100000011000011101001100100010100001000110010100110001001100
1101110011101111101010011010111011000000100110000001000110101010011011
0111011011000000110100110101011000101011111101011001000110011100010101
0111111100111011101100100111010111000111100001111011101111010101011100
0010011010000101110101010100000001011110110110101111000110111111110001
0110100001110011101010100010010011001001110010100000100100111110000100
0001011101101000110101010110001101000110001011000010100111011101001010
1010001000000100110101011010011110110110110100011000101000111000001010
0011101111101100110000000000010110010101001110101011011000001111110110
0100110001010001101111000100010101110100001010100111000010001011101011
0110100000100100110111000101110000010001011011000000100011110011010010
1100011010110010011000011001010000001010000001010010011111010011001100
0000011000010000111000001100001001000000011011010011011101111011001001
1000000110101110001110001000000100010001011001001010010011001010111111
1000001000010111100101001110011111011111001010100111111000111000001101
1010000000111010111000011010011110100100110101110011110001001010000110
1001100111100010011110101101010000110001101100110001110000110110101100
0101000110011101110000010111101111100111111001010000001011101100010000
0111100111111111110111011000100111011001100110011000100000011000001110
0001111100100000111100010010100010101000010001110000001001001000011011
0100101011000001110110010001010001111001001011100011010000001011101101
0011000001000011011001110011110100000101001000110110001010001001000110
0111011101001000110100101001100111010111111001111101111111001011110011
1010011100101010110011010001010111100010100010101100011110011001011010
1011101000111100010000101110100011001100011101110010000111111110110010
0111000110100110001111111000010100000101111010011010101000001110100110
0001010101111011011100010111001011110101010010101011011100001100111110
0111111010000111011010110000010011100011111100001100001000001010001010
0011100101010011111101011010000000010000111110100000101100101011011011
0000000100100101000111100111101001001010110101101110010001001100000000
0110111011101110101101001101101100111110001110100100000110001011010001
0011100100001011100111100010011010010000001100110101000001001100101101
1110010101010010010011111001100110101010101100011010111011110001011111
1010010001001111100110110111000011011111011000111100010001111010111000
0111110011111111110100110010110100011010110101000111100101111001011110
0110001001110011010111111100100110110010111010111110100000010001010010
0011001101111011010000000110100011110110001100100100101110011010001010
0101101001100011001010000010000001111110000001100101110011001001100111
1111001101010000011011000001110000100000101001001000110110001100110100
1111110001000110001100000101001110010110010000100011011101001101000011
0000000101100011101100001011000000110101001000010101101110011101110001
1110110101000001110111010001000111110100010010000011100100000010101111
1001010010011111111111001100110010000001010101010111011001011000100101
0001100101010000001100101001100000111101000100110000110000110010001101
0010100011111000000101111001100000000101010110111011100000100001001011
1111101000011110000101100101100011100110111110110100000011111010111100
1110001111100100011100101110010001010101111111111101101010011010001011
1011100111011110001000110111111010110001100010110000010101010110111111
0011101001000010111000110101010101011111011010011011001011101111010101
1000111100110101110011100110111001011101001011110110110100011111100011
1110101010010100000000011110111000100000001011101101101110101010000000
0111100000011110011110100100011000010001000011000110010001100010011011
1011011011001010001101111100000101100001100101111000101010010010000000
0110011101111010000100110110011000011100001100010000111110011110111001
0111001010110000110100010101010000000111100000010010010010111011010011
1011011001110110000110101101110011100101010011011100101011010011011000
1010101111001100011001001010110010000000100000101000000111100001010010
0000000100000010101001000010100101011000000001011101000111100010111000
0001110100101111001001011111111011100101111100010110010001110011100000
1110011101010100101001010100100011101011111101110010111011001111001100
1110101011111001010100011010010101111001010110000110111010011001111101
0000110010100011011000010101000000001101111011110110111100010011001011
1000011001110001001010111110101001110010001001101111100011011111000011
0111100001110010011000110100110101011010011011100000101111110100111011
0100011111101000110100011100011011011100010100010000011101001110111011
0101101101100111101100010111100010101011001001111001001000110111000111
0101100011111110010110101111001011101000111010010001011000100001101000
0111000010101110101101111110110000100110100011111000111000101101110011
0010101011011110010111010010001000011110010111110100001100100101100000
1011000110110100000011110000100000100100111001010011100100010011001111
1100110100111111010010101111000111000010011100001010101010100010110110
1110010111100001101001011110000101100111110110000110010011011011100101
0100001001110110101110100010111000000100110101101010011010011011011011
0000101000001010100111100101110010000001001100110110000000111110100000
1000010100110101001111111010010111110110000010110111000101110000101110
1101001111001001011101101001101110010011110000001111010010110000001000
0000000000111001000110110010000000000110100000000011010110110100000011
1001101110101110000100100100100000110101110011010010000010100111100111
1001110110000000111011100011100010100011011101110011000001111100010010
1010111001110110111111011000000101111011101010010001100010010010001111
0011010100101001011110100100011100001011001100011000010011010100011110
1010110000000001010100011000010111111011010010111101010110110101100001
1001011010110100001111100001000101100001101111101011101001101101011110
0001111110111110101000101011111111110000011000010011011011100011100100
1100101101110000011111110011101111100010011010011101010111001110110110
1110000010011001110110110001111010010111110000111110101001111010011000
1101101010000100101010000001000100010101100010011110001001011001011001
1011000011111110011001010001000101100101000111011111010110011111000010
0100000011010001101010100100010001011010111000110011100100100100001111
0001001101011101001101000101010001001101101011111001001011101001101001
0111100011010001010011000100101111001001110110000101001110100000100111
0000011011110010100010010011100110111011110010000001000100010001000100
0011001001001001111100111110110111011111111001110111100001010000111001
1100100100011111110001011000001000010000101011010011110010100000000110
1011000010101001111010010100011110010000110010000101111001000111100000
0110011011100111110110101000010000101000100111100111000110111000010111
1010101000011001110101101110001100100100101001000011101111111000000010
0011011011000000111000010010001000101011011010001100001000100000000101
0010100111111100100010010011000001010011000110001010111101001101011010
1100110111101001000001100011011001010000000100000010101000111110011110
1101100110001100110100010001111011000011011111100010011001111100000001
1010000100101110110111011011110011111110100001111100001110001000010101
1011011110010001111110010010111111000111101101000111110011011000100100
1100101101100010010101101000100000010101011000101111001100100100111000
1110110000111101101001010101101011010110110000110001000010110110001010
1011001011010010010001111110100000110011011000101101011100101001000001
1010111010100011101100100100110011100001001001111101111100011000111111
0110011110011010110111110001110000001100100001000111010010111010010100
0110111111011101110101111100000011001100101011111101111001000111010110
0001001110111000000100011011001000100011000000010000000001101101101100
0110110100000000011010101000101110101100100101010111001101010101110000
0101000010001001100110010100000010100100100101001011100111111101111111
1000101100001100011110011100010000010111111101100011010001000000000111
0101000100110100101000010110011001101111100110010111110001000000110101
0011111100111001010111101010101001110010001101010100010111111111001000
0101000111011001100110001000000010101110010110000111111011110111001100
1011000010100001111011100110010010110101010000111010101000001000000110
0110110100110101101100111011101100010000000110000010001100011111010011
0010100100111010101010101111110011001111110010100001000111010111011001
1000010110101101011101011010011011000010010100111000101000110011011011
0100000110110111100010101111100010010110101111011010000011111110111100
1111000111111011010101011100011000110100011110011001100011000100111001
0011101101100011000000000110111110001011101100001011010101101010101000
1110011100111001101000000101100011110000001101110010010010000011101101
0011111001011010100101110011111110110010100001011101011010010101110110
0000101100001000111101010101101101111011010100011100001011101010101100
0000000010110111100110100111010000100101110101011100101110011011001001
1101100100000101011101100000001000110000011001011101011110100000011110
1110010001100000110010011110000101001001110110101101010101100010110010
0010010111100111010110100100110100101110100111010111100010011101101011
0011010001110100110100011111100011110111010100110000011100001000011000
1110010100111100101100000011001011010001100010000101101101001000101111
0010010011010111110101101010000001100100001001010000001100000010100010
0011010001101100010010000000001000101011101010111100001001101001000101
0111101010011000001111110110011000000100001101110001100010001000000100
1010110000011011001001011111011110100100111010011111000110011001011010
1010101110001100010101100100010111101010000011010001111011010000110000
0000011000011000010000000101101101110110101000001000100110000111000011
1010010110110010001001010000110001001110110111110000000000111111000111
0000101011110110100011111011100101111110000011011011010111001001110001
1101110000001011100101000100001111011011011100010011111101100111010101
1010011001110000011111011101001110011111001111110000011101000101100011
0101010101001010111101100000110100011001101001010010100000011000001111
0000101101110110111110010001011011001101110101111010111111110000100000
0100000101011100010110110011111101100100001111010011000110001110100100
1000011011001001111111101011110010010111011101111010101000011010010001
1010010101111110110101110000001010011000111101100011110111111110101101
1010111010011001110100000100001100010101100000001010010100110001100100
0111011011001111001111110001101010110011100011111000010000110111101110
1001110000100100100110010111101010101100110000000110111100011010000100
1100100001111000010001001001000100110011100011010010000101101101111110
0011000010100101010111011110100111011000011101000000101000011100011011
0001101111111011111100010100111110100011100110001110001011000010000000
0000110110010011100100110101001001011100111110000000010110010111010101
0101010000001111001011100101100100001011111001101001111011100110110001
0111110000001100110010100010110101010110111011000011001010100110010001
1110101001010101111011100110001110110011110100001100100110110001110111
0011111111101000110010011110101110000001111011001000001000011100010010
1011000101101011011000100111101101011000010111010010011100001111010010
0100110110101010100101011101110110101110011110100110111001111100100111
1100011111100001001100100000101110101011001001100000010011011000010100
0000011111011000101110110101101101100100001000010111100100011101100110
1101101101010110110101111011101111011101010000011010001100010101000111
1101101101011010110100011010111001001111010111100111110111110011111010
0100110000011111001111110001110110101101001100100000111001111100110110
0111011110110111110001001111000111000011011000111111111010011000110110
0111111000111010101110100011101110101001110001111001011010100011001111
0001000110111100010110011010001001110001001111111110111011011100011011
0111010101010101100110010111100100001101001001011011010001100010000110
0111011000011110111111111110000011010111100111101010001110110000101011
1011101000100100000011011110101010000111101111111011110010000011010101
0111000010011101111100111001100111011011010100110010001001111000101111
0100110000010101100001001011100110101100011001010010000101011001111000
0010111101111110111101000111101000011101101010000000101110000001000001
1110101011011110001001010111110001101000101010110011100011101101011111
0011100010011111101000101101110100010010111000000100100010100010001000
0111011011101000010000010011001110010011101101111111010010010101011010
1011110001010001011011010001010101010101000101000111011011011001110100
0001100110000011100111110001101010100101101110000111001101010111101011
1101011110001000100110111010010000101010010000010011000100011011001101
1101101101010011011000011010101010100010111100000100100001111010000100
1111011111010010011101011010110101011100100101111001101110100110011111
0000101010000001111001110111101101111011111111001101110111001111000001
1110001010011110001001010011010111110101100111111011110001101100111101
0010100011011001001110010101011010101100001100100011000011100001111001
0110000100100100111111100011000110110110100100010101101101111100111100
0110111101010110111000100111010011100010111110100000011000010011101100
1111101001100101001011010111001111001010100110011010111001101100001100
1000110011000101100111010011101101110111110110000111010010110000111001
1101011100011010100010110001010001110100100001011001010011000000111001
0110001011110100001001000011001010110000111100000100110111011111000010
0010000000110000111001110100011010010011010010011011100100101001110110
0010000111100011111011110000100001000111000101010101010011101101111101
0010101111110101010101000111010100110111001111011001111101010100110101
0111001000001110001010110000111000101001001111011110111011010010000110
0100111100000011000011001110000111100011001000100100010001001011101001
1010010110110101100110001110111000001000110100001110110011001011011001
0100011110000100110111100001001011110001000010001000111111111000111010
1101101100001100111010010101111100010000001101110011010000001111110111
0011110100110000011010000110111111000011010011110001001010101010111010
1011000100101000011100011110100000010000100000100000001110111011010001
1111110010010111010001010011010101110101101110001001101000101101010000
1110001000100001001110011001000011011110000011111010011101001000111101
1011000100110100001111111101010111000110111101110101010101000011001011
0001100110011010111001010010001001101011010011001101010010000101001000
1011001000111101011010001000000101111011010100000011011111101110001100
0011101001011000100001111100001010100101000101011011100110111000110101
0111000011010010111000100000101011101100011011000100111111011111001111
0101110110101010011000111010100110100111001111110010001000000011101100
0010101011001000010110101010110011001100000101110101111000011010010100
0000111001100010010010100101001010101011001010010101111101000011001100
0011101111010100101111100100000011101111000111101000010010011100010001
1111010110110111001010110010010101000110111100000010001100100110101110
1011101000010001100110000101110011111110111111010001001100011011010101
1101010000101111011100111101100010110000011000111001010011101001000000
1010000111110000011111100000001100110101000001100010110110010110101000
1000101001011001111111000001001111101001001101101010000000101110010010
1100110011001001001000100110100101110111011100000001011110100010111100
0101001100111100010000011100011001101111100001000000000110011111010101
0101100100111111111101000010110100010000111001110000100001010010011001
1100111001010010000010101100000110101100001000100110100010110101101111
1100000111001101010110010111001101101010110000100111010010110010100101
1100110110011000010010001001111001000110111101101100110010001100010101
1100001110010000011010100010111000010101011011111000010111100101100100
1010001100101011111011100000001100111001101000111011011011110000011100
0101100011100111111001011101001111001010000010001111010101011101001110
1100110101010001010001000000010101100110001100001011111011011011101001
0010110101110101110111101100101110100100011001110001101010100011110100
1110101111101000110011000110000110100011001111100001100101001000011000
0011101001001101100110110001000001011101001101010101110110101101001111
0011110000101001110011100101000000111010000000100101001110000100101001
0011001001101000100100000100001010110110011111001011100110111000111101
0101010010101001100111111010011001110111100100000010101010110010001011
0110000001111010101011001001100111111111000110000100000111001010001110
1011101100000000011010100101000101111011011001101000111101111101011100
0011110011000111100010111110010010101101111100010011001010011110101001
1100011001001100100111011110010100001100010100110100011000000000101011
0100101011001010011101101000110100011100000001011101011001010000100010
0001000011010011010100101011001101001011010011000010101010110001101010
1110111110000101111010011100111100111010010101010011011101110000111000
1011110001010001100000100000000100101100001100010110101001011001011011
0111011100000101110101001000010001011101101010111001101011110101000110
1100110001010010001100001101011101010001000001010000010100001100001001
1001101111101111011010110110001101110011101000101011000100100010000001
1111111001010110010110111111100111011111000011111100011111001010111011
1111001110010000111100110110101110010101110010010100101110100010001010
1111100110000101010010010110100111001011011001010011010101100111010101
0011110100110110010110001001001000011000111110110111110100000100100110
1000111001010110010110011001111011000101000101100011001101010011111011
1101001001001000001011000011000100000101101011011110000001100110010011
1010001010110110110010100110001101001101010001110111111100101101000110
0100001101010101010111010010011001101011011001000000101111010110001110
1100101110110011000010111110000110111100101100001100111001011101100010
0001110111001011000111010110001001010010110011101110110101000110010111
1001000000110000000010100110001100000100101101001000010011111011010000
0101110110100111100000111101010000011001011100001001010010111110011100
0011100101000000010000110111111111111101001011010010010001010111000111
0110101100110000011001011011000010000010010010111000001101001111111111
0100010100100101010110001100011011010101111110011100101011000001110000
1100010001110011010110110000001111010000011001100111100111011111010010
0100101001100100011011100110101001011101011000011010110101100000101011
0111111101101010111111111111100111101001111100110001001110001100011111
1100001101100101110101001110001110010100001011001001101010100010011100
1000110101100001001101011011111101110100010011111011010111011101010110
1110001110001011111000101011101000000111110011010110100000110000000000
1111011001110010000111111100100011010110001001101110000010000011111000
0010111000110000010000010101101000010110111111011011110100000100000011
0001111100011101011011111111101101111011011101000101010111101001111010
0111010011110101010100101110100111010111000011110010000111011000011000
0000011010000001100110010000000001110011011110000001000101101110001100
0110000000001101000110000101001010010010001111110101101111011101100110
0101110000101100001111010000110100011111111100100111001001010110110101
0000100010101100101001110000111010000001000110011111100100101000000101
0010101110101001111011011110011010100000010111000101000011010101111111
1100011011110000011011110001111101101000110110111010101101000110100000
0100010110100010111110100001001011111100110011001100111011110011001101
1111101110110001011101010001101010110001010100001101001101011110101010
1110010100001100001010001100110110111101111101101100100001110101111111
0000101101011110011111011010101100100111010101101010001100110001001110
0110011000010010110001110111001010011011001100100100011010110001001000
1100011111011111101110111000001111010101011100010001001101001111010101
0001001011001000001000111110011101001000110010010110000101100010100001
1101010010001011110110111111110000000011011110001011110001110000001000
1011001001100010011101101000000011111010100101100000111111100001110111
1101000010010001101001000010101011100101100100110000100101110011001011
1001001100100001110000000001001101001011001000111011001000010100011110
1110110111101100010000101110000111011000010101100000010100110000101011
0101000110110010110101111010101111011010000001100111000101110011111100
1001110011100000101101111100000110101100010010011001110000001000110000
1111110001000110000001101011001111100100000001001000010110100011101110
1101101100010001101001110001011110100001000100010100010010111110101101
0010111101000010010001110011110001010110111100101100011011110110010011
1000100010110111000111101101010111101100110101101101011001100011101001
1101110011110000011110111011110011100101011111110010001010100101011001
0001100011101110100000001010111110010011100001011101101100111100101111
0010111110011010110011110001110010001000001000010101010000011011001001
0000000100001010110110101000000010010100100110101110101001100111110101
0010100000110101101011100010001001011110101111110011111110110110001110
1011100010011100011011100101010011111111000110001100011001001000111011
1111001001101010010001001101010101101010100100111111000010111111001100
1010110001001001011110001000001100111100100000111000010110111011001001
0110110001010000111010101100101110100100101101111000010000001010011001
1100000001001111111110111000001101000000110001110000101001001101100100
1111110000010111110110111011110001111111100011110000011111100101010100
1001011101111101100000111100110010111000001111001000111011000001010001
0011100010010111000001100111110111011110110111011011101000110111010101
0110001010101010010100010010010011011100110011000011100101101100001111
1000001000111011101000010011011111101101111010100011010011010110000010
1000011001010100110110000100101001110010111001001010100110000101010011
1100110111001101011010101111010100111100001111001000000110011001000010
0011101000010011101100101101101000111011010111000110100001111011110010
1010111111011110111010001111111111100011010100111010011110101010100111
1101001011001100011110011111101011100101000110001110111011001101011001
0010010011101001110111010001110110111110000110001010011010001010000111
1100110110000010000011101111101001010101101100110111000001111011100111
0011101110001111110000111010001000000111110101010100111011011100000011
0100011001101010111101101101100110111010110010101001110000110111000110
1010100011010000001011101111101000011010101001001100101010100110110001
0111110001100001001001111011111100100100110101001101011100111001011011
0011110111000011111000010101111010101110010010011110001011101000011100
0000110100000001010011000111001001111101111111000100000011101100011110
1010000000100010000001111101111000000001101100001001110111000100100111
0010110111101111000001101010101000011010000110010111001100100000000101
0010110001100101010010011111010001110111001011000001000111001001010010
1100000000000000000001100100110101101101001011011011100110011001110010
1110100111001111101110111111100111101110110011100011001110110101011110
1001011111100101001111010001110010011100010000010101110111110110111000
0010100111010101100010100000000011001010110010100101110010010011111110
1101110010110000010000010001110000011010001011010000101101010001000100
1000111111011110001010111111111000111000001111011100110001011101110110
1111100101001011011010011101011010101111011110101000001101001100010101
0001001100101110010011101111000000100010101010011010110000110110011010
1010000101111100110100010001100001011001111001000010010100010011110110
0011001101110000100111000110000101011101110111101101001011001010011111
1001100000101000001101111100111011101000000101101111010100110011110110
1101000111000010101011010000111001100011101001001100011111100000010010
1100101100111100010010011001001111000110001101100101010111001010110111
0101001101111101010011011001111101101001110000000001010111100001111011
1000100100110100111010011100110000011101110110001101100011100100111001
0110101100001000011111010001001000110000000000011100011010010100111111
1101101110000111101110010100011111000101101110110000011100111000011001
1011111000100111001111011000011111000010000010100111010111010111011010
0101101101010010101101110100000011111001100101010110101111111001110000
1101101111001100101011010110110000010101010100110000101100111100101110
1111011110110111010011111111001110011000011001110111100011101010001001
0010011101111001011010011110110111110001010110000101000111100101010101
0000101101100101000101100101000000110000110101001101010000110110001001
1111110101001011111001001000011100110110110001110011111011000111000001
0110111001010111101101000001000011000100100111101010100000111110101111
0000011100110010001110100001101101100010100111011110101101111010100110
0000111111001100100011001110000000010011111011101100001010010000001000
1100011110011010000010010101100100101110111010000001011001011001001110
1010110110011000101101100100010100111100101010100010101011011001010100
1111101001110011000011110100101010100010001000110111100100010111111110
1100110000011101001011100011110000001001001111001100000000001001011010
1000101000100001011010011101101001111011110110011100100110000110000001
1101110111110010110111001101111001011010101100101011101010001101001100
1000101100101001011010111000100100101011101001100011001001001110100011
0011011011001110111110000010001000001101011100110001110111011101001110
0110110000100010101100101100010101110100011010001101111001000110000100
1010001000101010011001111001101000100001011111110010110010000100010010
1111000110101011101101011001101010100111011111001110001101011101111110
0111010010110111010010111000110100001100111100000001010110100010001111
1011111101100000111101111110000101010000101001010100010001000000100000
0001000001001001001111111111100100101101001011110001100111001011101000
1000010010011011100100001101101011011010001101011100100010101000011111
1010111001101011001010010000101000111011101000111110111000010100111011
1110101110000111111111011101110001101010010000101110001011111111001000
0011001000111110110001110000000010110010101001010000111011010001010000
0100101101001110110100001001101110100010110010101101100000110111101110
0000110011111011001111000111101101110010101001101000101100010000110011
0101100111110111011101101001011001001010001011100011101001011111011100
0011000101110011001010101101101100001111001000100011000000110000100011
1110111111101011011101101001000011010101110011110000100000110110011011
1001000110100000001111001000011110110101011011110001100100101110101101
0000011101101101001100010101000100101001011101001101100100000010001111
0101010011110000101101100101010000101101010010000111101111011011000010
1101110000111000110111100010001101010010110010111100001000100010110101
0100100011110111011111100000101110100111100100001111001001011010001000
1101001001110111011010001000000110111011101100100001011111100111001110
0011010110111100101001011000110111110101111011001101101001010011001011
0011000000101010011011101100111110010110101010111000010100111010111100
0111001110111101000101010101010001101010110000111101100110001000100000
1111111100011111010111111110100011110101100101000011011100110100011101
0010111100011000101101001110001001010100100100101011011100000100001100
1101010011000011001000110010110010011010100100000100101001010011011010
0001111111101001000010000101111100011110000000110111100110001011001110
1000000111010110100100111110010010011000101010000100110011110111010100
1101101000100000010100100110011111001000010010101110100111011110010011
0100001100010100110111001011010001101011010110100111011110101100010110
0011101001010001000101001100010111000110110110110100011001000010110111
0000100011101010011010010100110110110110010011010011010001010000111110
1111100010000010001010100011101101011111111111011100110110000010100011
1011000001101110000100101001010011110110010101101111001101010010001011
0100001000101101010001111110101111111010010100011111000111101110000001
0000010000111100011001111101101111110010010100111111001111111000101001
0000100110001000101011011011010010110100100101111100001101000010001111
1111010101001011010000110111000111110111111000100100011010010010001010
1001101001001000010001111110111111001111111011110101010100011100001100
0111101011010001001000100111011000110000001000100000011100001001000100
1000110011101110000101110111011100011010100100100010101000100000001100
0010110010011010011101101000100101010000101000000110010110100001100000
0111111001111001111100101001000001110110010010100110100010110100010101
1101110000110000010000101001100011000010000010011011010110000100000001
1001011000001111001100000010010100001111111100010000001000001001000101
1100011101100101101100000010011101110000010000110001001010011100111101
0000001111110100010000000111010010110001110010011011011001110110101100
0011001011010100111101011001101000101000111000011101010010101001010100
0111111110011100110001001001001011110101111101111111111011111011110000
1110010101110001001110111101100011101111001001101011110000010011101011
0111100100101011111101110000111110000011011110001111000110100011011111
0001111000111001110010001010101101001101110010001000000111100100000100
0101011001001010101001100010111001100000101100110000011010011111000100
1010110010011000000111000100001100011010101000010001101111011110111011
1010010000001110101101011100111000100110011110000110011101011101011000
0001011010100010111100101111101101100001001100111010100010100110001111
0110010110000100110110001010101011000011011001100111010111111010110010
1011000101110100011100111101101001101001110100001110001110000010100000
1111111110000010100010000100111000110001010111111110110101110010100100
0010111001111000101111101001100001000000101001001110000010100101111111
0011001100011111100010011100010011001111110000010001001011011000000111
1011111110111110100011011010001110000011000111011010110001000011011010
1101110101110010011111100111011101111101111110101010000011010111100011
1000100001111111101101110011000110000010001110101001110011111100101010
0100010111110100111001111010000110101111110101010111000001010101111101
0100101110001101100110010001110100110101111001110101011011100011000111
0000001111111100111010001111000010010011101011001000011100000101111010
1000110111111100000101010101111111100101011011010100001001010100100110
1000011001110111011011111010010110111010011000100001000100101010001010
0111101001110111011000010001011001111111000111001101100100011111010100
1001101100001101000011011001001100000110100010000000101011011101101101
1111001000010111000011110100001010110111110111010011101111101000010101
0110001011001100101000100110000011001000110000010100110000010011101000
0110011011010100100010010011011100100011010000000100101100111001110101
0000000000100111011100000100001001001000000111011011010000000100000000
0000110011000010110110110110111111011010110111000001110101000111010111
1001000000001111100100010010000110110111011111101111010011010011100111
0100111010101111111001010110111101111010011100101000101101110000100001
1100010110110011110000011011010101110001000001101001010111011111000001
1011010011001011001010101110111000101001101010010111110001000100101101
0101011001110000011110010011111111010110001000101010001101010101000011
0110110001111110011100001100111001000000110011011001010100110110010011
1001010111111101001001110110101010111000110000111111000011100011000001
0000011000111111001101110000001000111011000111011101001001101000011110
0100011110010111110011101110110100010101000010111111001000011100101101
0011011100011000001110010101100100001111010110000111111001111011011110
0110001001111100111000011010100111011100011100111001001110100101000010
0101101000100101111001000000011001011101011000111001101101110011110110
0110100011011110000110001100010100110111011100000011010010011001010001
0101001000011111101110101011000010110100100011001110010110110101010000
1111000011101110100000101111000111011010111000011011011100100110011111
0001101100011000011111011001100100010010010010011101100000100111100001
0000001110001101010110101000001110110001111000001000010011001110100110
1010000001001110111110001001111011101101110001010101001100001101011111
1001000111010000100101110101111011100111011101111110001111001100110111
0111010100010111010011000110000001000000000011110000100111010010110100
1011101001001001111101111011110111001111111011010100000101000011110111
0000001010110110001101111101010010000001001010100010001110011001001101
0011110010001000100110111000101111100101101011101101110010001000110100
0101010100001011010111111001101101001011011110101111000101011101001100
0101010111000001100111011110001111010010010001111111110000010101000111
1111110100011111111001100011100011100011000111011011100001111110110110
0101010001011001000101011101111101001111011111011001111001011111110001
1100001111100111111110101011000111011100000111001100110111011100000100
1000111000100110000011110100000001000100010001101110000000000100000000
1001001110001101101011111100100000001100100010111010101111101111010100
1101001110000100011111100110010111011100000000001000111100000011110000
0010110111110001001001010000011110101000110100001001101001010100110010
1101001100100001010101001011010100000010000010111001111011110110110110
1001010011011100111011001110110010010011110001110001001111100111010010
1011100011010010011111100110100010100001101110111001111101011010010010
0011101111110111010010100111001000100011101110101100111010111011101100
1010100001010101111000110011100001011000001011111011101100000000110110
1100111000100001111110010100000110110110100101010011010001111100001011
0011000010001011100011110111100010110111100001111010110101100101110101
1111100010010000100000001111110000110101100000001001000101011111101111
0111101100000010011000110011100011101001100101100010101110000000110100
0100011111101010100101111101000010111001001100000011110000001000010000
1000111111000110011010000010011111010101000101101000000100111001000010
0010111010111111011001010010110111100001110011111111000000011000010000
0100110001100101101100000000000010101100000010110000001001011110100110
1101001111010001100111011011111000100001100100011010111011100100111111
0110011110100110111111001110011000000111111000011101001110011111000011
1100100100001010100100111111111001010000000101110010001111100000101101
1110011001011011100000000001110101100000000101000000011011100110001011
1101000100111000011010110011001111001110101001010011000000010100010101
1110001011001001111100000010111110110111001100111001001001000111000010
0001101000101111010010000010000000001101011110010011110111101000000100
0000110000010110001000010010011011010110111110111011110100001101010001
0101110011100001101100001011010011000001110110010100010110101100000101
0100100110110101001100101111010111101010001110000110100001001010110011
0100010010110110110101011101010010010001010000101111011111011010101101
0111111010110101010001101001100111011110011000111110100000110010111010
1110100010100010110010000011000111001000001000011000100100110100000011
0111011011111010100010110001010001000111000000010001010110011000100111
1011011011010001101111111011011110010011110010110000101001000111100101
0100111001111011110100011111110110001110001000111101101000110101101010
0001011101010111110000111010011111010001100111101101110010011100111111
0010100001100011001110000111100101011001111100000111101110000000100000
1110010100010011110010011011011000010100101101100101101000110010111101
1000101001101110110100111010110010110011011100110100000101100100111000
1010111011111111000001101100100000011110000001101001100010000000001000
0000000011011111101101101010010010101100001111001110000101100110000110
1100111111101101111011001001111011000011101000111010011111101000010011
0001001110001000111000100110100100100001101001011101011001111110100100
0101101100101110111001111011100110111001011100101101001100000010101001
1010110111000001100100000101111010011001101101111100100010101001000000
1100101010110000011000001111111011001100110010001101000111100001001111
0100100101101101000100010011111101111101111000110100101101100010111101
0110110000110110001101111100011000000000001111111011100011010100000011
0110001110101011000000001001010011011111101010011001101001101000111100
0011000011110011010111101111011010100100011011110010100111010110010000
0100111111101001100111111101101011011100010010110000111001101001000110
1111101110100011000101100100010101000011001001101111001101100000100101
1010011110001110011111110100000111011110011100001100110100110101101000
0011101100101001101011001100100101101010100000111000100011001010000111
1000000101100000111111001011100100101111101101110111011110000010100001
1110001111000011100110001111111000000110000000100111010101010110010001
0011001001111111010110000000101111011111110001111100100110101010101011
1000001110010101011110000100001101111101110000111000101101101010111101
0100111000101010111111101110011010001111001100111000101010010011011110
0101000101100101111001010010100111011001010000100000000001011100001111
1101111011010010111100000001010100011110101100111011011000101110111101
1111011111100110110011101111000111000011111101100100100010110101011111
0000101101011110000110111101010110110001100101101110101000101111100000
1001100001101000000010101111111011100100010111101000011100011111001010
1111010010010001111101000001101011100001000000011100000000010110010010
1101100111111111010010100010000010110101110011011010000100110010001101
0111100111101000110000010111011000100011111111100100111001100001001000
1110000100011000001100001000100000100101100000100000000101111001010000
1101011111111010101110110100100100001011100100100011001011000010100001
1110000100111010000100100000101010000010011010010001001001011100000010
1110101011000101100001100100010111101001011001011011011000001110011011
1100001000010001011111011000010110111011110101000011110000100101110001
1100001011000101001101000100001110110011100010110000001001101010011110
0100100010001000101000000111001010100101011110100001011000100000010011
0101011100101110110010000111100110111001010101111110000010100100111110
0010100111011010100000000110010111101111000001011001000111100111000001
1011000011010110010110000000001111011000100011010001101110110011111001
1111110001010110000100010101000101010011100011000010011011110100101101
0010000000000011100010010110001100100101101100011100100011011101101111
0111000111011111101100000101101110110100001101111011010010000111101011
0101100010001001110110000111100100110110110110001010111110000000111100
1010110110010101011000000110110010001100101110111011011110100101110000
110001010001100111101100111101