P3
10 10
255
28 25 24    28 25 24    28 25 24    0 0 0    0 0 0    0 0 0    0 0 0    4 7 118    4 7 118    4 7 118    28 25 24    28 25 24    0 0 0    37 118 68    37 118 68    37 118 68    37 118 68    0 0 0    4 7 118    4 7 118    28 25 24    0 0 0    37 118 68    37 118 68    37 118 68    37 118 68    37 118 68    37 118 68    0 0 0    4 7 118    0 0 0    37 118 68    37 118 68    0 0 0    37 118 68    37 118 68    0 0 0    37 118 68    37 118 68    0 0 0    0 0 0    37 118 68    37 118 68    37 118 68    37 118 68    37 118 68    37 118 68    37 118 68    37 118 68    0 0 0    0 0 0    37 118 68    37 118 68    37 118 68    37 118 68    37 118 68    37 118 68    37 118 68    37 118 68    0 0 0    0 0 0    37 118 68    37 118 68    0 0 0    37 118 68    37 118 68    0 0 0    37 118 68    37 118 68    0 0 0    147 25 8    0 0 0    37 118 68    37 118 68    0 0 0    0 0 0    37 118 68    37 118 68    0 0 0    203 102 223    147 25 8    147 25 8    0 0 0    37 118 68    37 118 68    37 118 68    37 118 68    0 0 0    203 102 223    203 102 223    147 25 8    147 25 8    147 25 8    0 0 0    0 0 0    0 0 0    0 0 0    203 102 223    203 102 223    203 102 223    